<?xml version="1.0" encoding="utf-8"?>
<svg viewBox="0 0 300 300" xmlns="http://www.w3.org/2000/svg" fill="current">
  <g transform="matrix(0.10000000149011612, 0, 0, -0.10000000149011612, 3.552713678800501e-15, 300.00000000000006)" fill="#000000" stroke="none">
    <path d="M 1355 2933 C 1268 2925 1141 2897 1041 2864 C 390 2646 -18 1990 75 1310 C 119 984 251 718 485 485 C 697 272 953 136 1243 83 C 1370 59 1642 60 1763 84 C 1935 117 2095 179 2245 268 C 2321 313 2480 431 2480 442 C 2480 446 2453 430 2421 406 C 2299 316 2104 231 1940 195 C 1823 170 1586 164 1460 184 C 1164 231 921 358 706 578 C 537 750 426 955 362 1210 C 339 1303 336 1335 336 1495 C 335 1632 340 1695 353 1760 C 410 2026 523 2241 707 2431 C 811 2539 916 2618 1040 2684 C 1461 2907 1978 2887 2367 2635 C 2415 2603 2446 2587 2435 2600 C 2400 2639 2241 2739 2126 2795 C 1894 2908 1619 2957 1355 2933 Z"/>
    <path d="M 1455 2744 C 1411 2736 1337 2718 1290 2704 C 1207 2678 1046 2610 1053 2604 C 1055 2602 1088 2611 1127 2625 C 1271 2675 1334 2685 1510 2684 C 1662 2683 1685 2680 1795 2651 C 2218 2540 2541 2215 2652 1792 C 2681 1684 2683 1662 2684 1505 C 2684 1354 2681 1324 2658 1230 C 2547 789 2228 463 1795 349 C 1685 320 1662 317 1510 316 C 1334 315 1271 325 1127 375 C 1088 389 1055 398 1053 396 C 1047 390 1204 322 1285 297 C 1531 220 1826 221 2062 300 C 2257 365 2419 467 2565 614 C 2756 807 2870 1026 2916 1293 C 2940 1428 2931 1671 2897 1801 C 2835 2039 2737 2212 2565 2386 C 2373 2581 2139 2702 1876 2745 C 1764 2763 1561 2763 1455 2744 Z"/>
    <path d="M 1508 1808 C 1511 1286 1502 1042 1480 998 C 1440 921 1377 900 1167 891 L 1018 885 L 1018 777 L 1018 669 L 1252 670 C 1676 671 1816 701 1897 808 C 1971 906 1980 1000 1980 1738 L 1980 2330 L 1743 2330 L 1505 2330 L 1508 1808 Z"/>
  </g>
</svg>